HIERARCHY
ROOT Hips
{
  OFFSET 47.8876 96.7546 19.0061
  CHANNELS 6 Xposition Yposition Zposition Zrotation Xrotation Yrotation
  JOINT spine
  {
    OFFSET 0 7.96568 0.458067
    CHANNELS 3 Zrotation Xrotation Yrotation
    JOINT spine1
    {
      OFFSET 0 10.2431 0
      CHANNELS 3 Zrotation Xrotation Yrotation
      JOINT spine2
      {
        OFFSET 0 9.81475 0
        CHANNELS 3 Zrotation Xrotation Yrotation
        JOINT Neck
        {
          OFFSET 0 25.1986 1.20138
          CHANNELS 3 Zrotation Xrotation Yrotation
          JOINT Head
          {
            OFFSET 0 7.61315 0
            CHANNELS 3 Zrotation Xrotation Yrotation
            End Site
            {
              OFFSET 0 18.4281 -6.07733
            }
          }
        }
        JOINT RightShoulder
        {
          OFFSET -4.1327 10.5992 -0.575451
          CHANNELS 3 Zrotation Xrotation Yrotation
          JOINT RightArm
          {
            OFFSET 0 13.9018 0
            CHANNELS 3 Zrotation Xrotation Yrotation
            JOINT RightArmRoll
            {
              OFFSET 0 7.01789 0
              CHANNELS 3 Zrotation Xrotation Yrotation
              JOINT RightForeArm
              {
                OFFSET 0 20.4406 0
                CHANNELS 3 Zrotation Xrotation Yrotation
                JOINT RightForeArmRoll
                {
                  OFFSET 0 7.87516 0
                  CHANNELS 3 Zrotation Xrotation Yrotation
                  JOINT RightHand
                  {
                    OFFSET 0 15.8037 0
                    CHANNELS 3 Zrotation Xrotation Yrotation
                    End Site
                    {
                      OFFSET 0 0 0
                    }
                  }
                }
              }
            }
          }
        }
        JOINT LeftShoulder
        {
          OFFSET 4.1327 10.5992 -0.575451
          CHANNELS 3 Zrotation Xrotation Yrotation
          JOINT LeftArm
          {
            OFFSET 0 13.9018 0
            CHANNELS 3 Zrotation Xrotation Yrotation
            JOINT LeftArmRoll
            {
              OFFSET 0 7.01789 0
              CHANNELS 3 Zrotation Xrotation Yrotation
              JOINT LeftForeArm
              {
                OFFSET 0 20.4406 0
                CHANNELS 3 Zrotation Xrotation Yrotation
                JOINT LeftForeArmRoll
                {
                  OFFSET 0 7.87516 0
                  CHANNELS 3 Zrotation Xrotation Yrotation
                  JOINT LeftHand
                  {
                    OFFSET 0 15.8037 0
                    CHANNELS 3 Zrotation Xrotation Yrotation
                    End Site
                    {
                      OFFSET 0 0 0
                    }
                  }
                }
              }
            }
          }
        }
      }
    }
  }
  JOINT RightUpLeg
  {
    OFFSET -7.06048 -1.2947 -1.0861
    CHANNELS 3 Zrotation Xrotation Yrotation
    JOINT RightUpLegRoll
    {
      OFFSET 0 18.5308 0
      CHANNELS 3 Zrotation Xrotation Yrotation
      JOINT RightLeg
      {
        OFFSET 0 -22.9476 0
        CHANNELS 3 Zrotation Xrotation Yrotation
        JOINT RightLegRoll
        {
          OFFSET 0 23.0226 0
          CHANNELS 3 Zrotation Xrotation Yrotation
          JOINT RightFoot
          {
            OFFSET 0 19.1625 0
            CHANNELS 3 Zrotation Xrotation Yrotation
            JOINT RightToeBase
            {
              OFFSET 0 16.0188 0
              CHANNELS 3 Zrotation Xrotation Yrotation
              End Site
              {
                OFFSET 0.00678979 7.75782 -0.894206
              }
            }
          }
        }
      }
    }
  }
  JOINT LeftUpLeg
  {
    OFFSET 7.06048 -1.2947 -1.0861
    CHANNELS 3 Zrotation Xrotation Yrotation
    JOINT LeftUpLegRoll
    {
      OFFSET 0 18.5309 0
      CHANNELS 3 Zrotation Xrotation Yrotation
      JOINT LeftLeg
      {
        OFFSET 0 22.9475 0
        CHANNELS 3 Zrotation Xrotation Yrotation
        JOINT LeftLegRoll
        {
          OFFSET 0 23.2355 0
          CHANNELS 3 Zrotation Xrotation Yrotation
          JOINT LeftFoot
          {
            OFFSET 0 18.9496 0
            CHANNELS 3 Zrotation Xrotation Yrotation
            JOINT LeftToeBase
            {
              OFFSET 0 16.0188 0
              CHANNELS 3 Zrotation Xrotation Yrotation
              End Site
              {
                OFFSET -0.0304289 7.75782 -0.894207
              }
            }
          }
        }
      }
    }
  }
}
MOTION
Frames: 9
Frame Time: 0.00208333
48.3669 96.8973 18.9083 0.0273194 -0.29147 1.75797 0.0362712 -2.54258 0.0924137 0.0763706 -1.08229 0.183276 0.0741591 0.562778 0.182 -0.974436 21.5708 1.30068 0.643082 12.3586 0.993604 39.4077 -10.4688 -6.56649 54.9178 19.1355 44.3551 -1.59028e-15 3.97569e-15 -0 -6.46668 5.02931 -0.413525 -4.50701e-06 -6.21896e-06 -2.99999 8.02889 -4.95145 0.697676 -40.8704 -9.53204 5.73981 -55.2031 20.9182 -41.0574 -3.18568e-06 -1.64846e-07 -1.58375e-06 5.63994 4.31837 0.798619 1.72288e-05 -6.85994e-06 2.99998 -8.0289 -4.95142 -0.69766 176.709 2.43628 2.73647 180 7.01543e-15 178.906 178.002 6.30221 179.676 -1.25691e-06 -1.62437e-06 0.0680055 -18.6087 67.7223 19.3299 8.13649 25.2327 -3.48774 -175.726 1.21255 -0.552003 4.54188e-06 -4.6773e-06 -1.11533 -1.61676 -6.64892 0.078532 2.44502e-06 -3.05723e-06 -0.0936239 18.82 68.0595 -19.5634 -8.13649 25.2327 3.48774 
48.3784 96.8974 18.8818 0.028509 -0.293127 1.75933 0.0360643 -2.54179 0.0923295 0.0759344 -1.08071 0.18218 0.0737342 0.564357 0.180912 -0.981018 21.5593 1.30427 0.653308 12.3752 0.994928 39.4047 -10.4716 -6.56895 54.927 19.1414 44.3527 -3.18055e-15 1.90833e-14 9.54166e-15 -6.46759 5.02752 -0.413261 -4.50701e-06 -6.21896e-06 -2.99999 8.02889 -4.95145 0.697676 -40.8681 -9.53408 5.7415 -55.2033 20.9371 -41.0739 -3.18568e-06 -1.64846e-07 -1.58375e-06 5.65615 4.2915 0.800269 1.72288e-05 -6.85994e-06 2.99998 -8.0289 -4.95142 -0.69766 176.705 2.43546 2.74075 180 7.01543e-15 178.906 177.998 6.30561 179.677 -1.25691e-06 -1.62437e-06 0.0680459 -18.6103 67.7242 19.3316 8.13649 25.2327 -3.48774 -175.729 1.21079 -0.547398 4.54188e-06 -4.6773e-06 -1.11539 -1.61273 -6.64908 0.0790425 2.44502e-06 -3.05723e-06 -0.0935681 18.8224 68.0623 -19.566 -8.13649 25.2327 3.48774 
48.3646 96.8963 18.8888 0.0295168 -0.294769 1.76062 0.0358916 -2.54101 0.0922434 0.0755433 -1.07915 0.181097 0.0733549 0.565924 0.179834 -0.987509 21.5477 1.30781 0.663503 12.392 0.996241 39.4019 -10.4744 -6.57144 54.9361 19.1474 44.3503 3.18055e-15 3.18055e-15 -0 -6.46853 5.0257 -0.413017 -4.50701e-06 -6.21896e-06 -2.99999 8.02889 -4.95145 0.697676 -40.8656 -9.53632 5.74337 -55.2037 20.9561 -41.0903 -3.18568e-06 -1.64846e-07 -1.58375e-06 5.67232 4.26492 0.801886 1.72288e-05 -6.85994e-06 2.99998 -8.0289 -4.95142 -0.69766 176.703 2.4346 2.74484 180 7.01543e-15 178.906 177.994 6.30886 179.677 -1.25691e-06 -1.62437e-06 0.0680861 -18.6117 67.726 19.3332 8.13649 25.2327 -3.48774 -175.732 1.2091 -0.542907 4.54188e-06 -4.6773e-06 -1.11544 -1.60868 -6.64937 0.0795771 2.44502e-06 -3.05723e-06 -0.0935122 18.8249 68.0652 -19.5686 -8.13649 25.2327 3.48774 
48.361 96.9033 18.9149 0.0303093 -0.296357 1.76184 0.0357561 -2.54026 0.0921535 0.0752025 -1.07764 0.180045 0.0730266 0.567425 0.178788 -0.993635 21.5365 1.31118 0.673339 12.4084 0.997514 39.3993 -10.4773 -6.57391 54.9451 19.1533 44.3479 -3.18055e-15 1.19271e-14 9.54166e-15 -6.46945 5.02389 -0.412802 -4.50701e-06 -6.21896e-06 -2.99999 8.02889 -4.95145 0.697676 -40.8632 -9.53867 5.74534 -55.2044 20.9747 -41.106 -3.18568e-06 -1.64846e-07 -1.58375e-06 5.68796 4.23933 0.803435 1.72288e-05 -6.85994e-06 2.99998 -8.0289 -4.95142 -0.69766 176.7 2.43371 2.74868 180 7.01543e-15 178.906 177.991 6.3119 179.678 -1.25691e-06 -1.62437e-06 0.0681263 -18.6131 67.7277 19.3347 8.13649 25.2327 -3.48774 -175.734 1.20751 -0.538623 4.54188e-06 -4.6773e-06 -1.1155 -1.60468 -6.64977 0.0801249 2.44502e-06 -3.05723e-06 -0.0934563 18.8273 68.068 -19.5712 -8.13649 25.2327 3.48774 
48.3667 96.9022 18.9137 0.0308526 -0.297851 1.76299 0.0356607 -2.53957 0.0920574 0.0749174 -1.07626 0.179044 0.0727545 0.568807 0.177793 -0.999121 21.5261 1.31426 0.682489 12.4242 0.998723 39.3971 -10.48 -6.57633 54.9537 19.1591 44.3456 1.59028e-15 6.36111e-15 -0 -6.47028 5.02214 -0.412624 -4.50701e-06 -6.21896e-06 -2.99999 8.02889 -4.95145 0.697676 -40.8608 -9.54106 5.74735 -55.2054 20.9924 -41.1206 -3.18568e-06 -1.64846e-07 -1.58375e-06 5.7026 4.2154 0.80488 1.72288e-05 -6.85994e-06 2.99998 -8.0289 -4.95142 -0.69766 176.698 2.43282 2.75222 180 7.01543e-15 178.906 177.987 6.31469 179.678 -1.25691e-06 -1.62437e-06 0.0681662 -18.6144 67.7293 19.3361 8.13649 25.2327 -3.48774 -175.736 1.20604 -0.534638 4.54188e-06 -4.6773e-06 -1.11555 -1.60078 -6.65027 0.0806754 2.44502e-06 -3.05723e-06 -0.0934003 18.8296 68.0707 -19.5737 -8.13649 25.2327 3.48774 
48.3735 96.8978 18.9035 0.0311131 -0.299212 1.76408 0.0356082 -2.53896 0.091953 0.0746933 -1.07505 0.178114 0.072544 0.570018 0.176867 -1.00369 21.5169 1.31693 0.690625 12.439 0.999839 39.3954 -10.4826 -6.57865 54.9617 19.1645 44.3433 -1.54487e-30 5.56597e-15 1.59028e-14 -6.47097 5.0205 -0.412494 -4.50701e-06 -6.21896e-06 -2.99999 8.02889 -4.95145 0.697676 -40.8585 -9.54339 5.74934 -55.2066 21.0086 -41.1336 -3.18568e-06 -1.64846e-07 -1.58375e-06 5.71577 4.19382 0.806184 1.72288e-05 -6.85994e-06 2.99998 -8.0289 -4.95142 -0.69766 176.696 2.43194 2.7554 180 7.01543e-15 178.906 177.983 6.31716 179.679 -1.25691e-06 -1.62437e-06 0.0682061 -18.6155 67.7307 19.3374 8.13649 25.2327 -3.48774 -175.738 1.20471 -0.531044 4.54188e-06 -4.6773e-06 -1.11561 -1.59707 -6.65085 0.081218 2.44502e-06 -3.05723e-06 -0.0933442 18.8318 68.0731 -19.576 -8.13649 25.2327 3.48774 
48.3638 96.8996 18.9066 0.0310572 -0.300403 1.7651 0.0356017 -2.53847 0.0918381 0.0745357 -1.07407 0.177274 0.0724005 0.571003 0.176031 -1.00708 21.5092 1.31907 0.697419 12.4524 1.00084 39.3944 -10.485 -6.58082 54.969 19.1695 44.3411 -4.77083e-15 1.59028e-15 1.90833e-14 -6.47147 5.01899 -0.41242 -4.50701e-06 -6.21896e-06 -2.99999 8.02889 -4.95145 0.697676 -40.8565 -9.5456 5.75122 -55.2082 21.0228 -41.1444 -3.18568e-06 -1.64846e-07 -1.58375e-06 5.72697 4.17529 0.807312 1.72288e-05 -6.85994e-06 2.99998 -8.0289 -4.95142 -0.69766 176.695 2.43108 2.75817 180 7.01543e-15 178.906 177.98 6.3193 179.679 -1.25691e-06 -1.62437e-06 0.0682458 -18.6164 67.7319 19.3384 8.13649 25.2327 -3.48774 -175.739 1.20356 -0.527934 4.54188e-06 -4.6773e-06 -1.11566 -1.5936 -6.6515 0.0817419 2.44502e-06 -3.05723e-06 -0.0932881 18.8336 68.0753 -19.5781 -8.13649 25.2327 3.48774 
48.3659 96.8971 18.8936 0.0306511 -0.301383 1.76607 0.035644 -2.53811 0.0917106 0.0744497 -1.07336 0.176543 0.0723291 0.57171 0.175304 -1.009 21.5034 1.32056 0.702544 12.464 1.00169 39.3943 -10.4872 -6.58281 54.9753 19.1738 44.3389 -2.38351e-30 7.15625e-15 1.90833e-14 -6.47171 5.01768 -0.412413 -4.50701e-06 -6.21896e-06 -2.99999 8.02889 -4.95145 0.697676 -40.8547 -9.54759 5.75295 -55.21 21.0346 -41.1526 -3.18568e-06 -1.64846e-07 -1.58375e-06 5.73573 4.16047 0.808228 1.72288e-05 -6.85994e-06 2.99998 -8.0289 -4.95142 -0.69766 176.694 2.43026 2.76049 180 7.01543e-15 178.906 177.977 6.32101 179.68 -1.25691e-06 -1.62437e-06 0.0682854 -18.6172 67.7329 19.3393 8.13649 25.2327 -3.48774 -175.74 1.2026 -0.525402 4.54188e-06 -4.6773e-06 -1.11571 -1.59045 -6.6522 0.0822366 2.44502e-06 -3.05723e-06 -0.093232 18.8352 68.0771 -19.5798 -8.13649 25.2327 3.48774 
48.3754 96.8981 18.9011 0.0298611 -0.302115 1.76699 0.035738 -2.53793 0.0915682 0.0744409 -1.07298 0.175941 0.0723353 0.572086 0.174705 -1.00919 21.5 1.32128 0.705672 12.4735 1.00237 39.3951 -10.4891 -6.58455 54.9805 19.1773 44.3367 -6.36111e-15 -4.77083e-15 1.27222e-14 -6.47164 5.01659 -0.41248 -4.50701e-06 -6.21896e-06 -2.99999 8.02889 -4.95145 0.697676 -40.8533 -9.54929 5.75444 -55.2121 21.0433 -41.1577 -3.18568e-06 -1.64846e-07 -1.58375e-06 5.74158 4.15007 0.808897 1.72288e-05 -6.85994e-06 2.99998 -8.0289 -4.95142 -0.69766 176.694 2.4295 2.7623 180 7.01543e-15 178.906 177.975 6.32224 179.68 -1.25691e-06 -1.62437e-06 0.0683248 -18.6178 67.7336 19.3399 8.13649 25.2327 -3.48774 -175.74 1.20186 -0.523538 4.54188e-06 -4.6773e-06 -1.11576 -1.58768 -6.65293 0.0826914 2.44502e-06 -3.05723e-06 -0.0931758 18.8364 68.0784 -19.581 -8.13649 25.2327 3.48774 
